<svg width="484" height="67" viewBox="0 0 484 67" fill="none" xmlns="http://www.w3.org/2000/svg">
<path d="M9.90906 42H2.70906V9.84H9.90906V42ZM29.2051 30H4.72506V23.568H29.2051V30ZM29.9251 16.32H4.72506V9.84H29.9251V16.32ZM40.1903 42H32.9903V17.952H40.1903V42ZM40.1903 15.504H32.9903V9.84H40.1903V15.504ZM70.5511 42H63.3511V29.424C63.3511 27.472 62.9031 26.08 62.0071 25.248C61.1111 24.384 59.5591 23.952 57.3511 23.952C55.0471 23.952 53.4311 24.432 52.5031 25.392C51.6071 26.32 51.1591 27.808 51.1591 29.856H50.2471L49.7191 25.344H51.0631C51.2871 24 51.7671 22.736 52.5031 21.552C53.2391 20.336 54.2791 19.36 55.6231 18.624C56.9991 17.856 58.7431 17.472 60.8551 17.472C63.0311 17.472 64.8391 17.904 66.2791 18.768C67.7191 19.6 68.7911 20.736 69.4951 22.176C70.1991 23.616 70.5511 25.232 70.5511 27.024V42ZM51.1591 42H43.9591V17.952H50.6311V25.44L51.1591 25.68V42ZM84.9454 42.48C82.4494 42.48 80.3374 41.968 78.6094 40.944C76.8814 39.92 75.5694 38.48 74.6734 36.624C73.7774 34.736 73.3294 32.528 73.3294 30C73.3294 27.44 73.7614 25.232 74.6254 23.376C75.5214 21.488 76.8014 20.032 78.4654 19.008C80.1614 17.984 82.1934 17.472 84.5614 17.472C87.4094 17.472 89.6014 18.112 91.1374 19.392C92.6734 20.672 93.6334 22.32 94.0174 24.336H95.3614V29.76H94.4494C94.4494 27.68 93.8414 26.208 92.6254 25.344C91.4414 24.48 89.6974 24.048 87.3934 24.048C85.8574 24.048 84.5774 24.24 83.5534 24.624C82.5614 25.008 81.8254 25.632 81.3454 26.496C80.8654 27.328 80.6254 28.496 80.6254 30C80.6254 31.44 80.8654 32.592 81.3454 33.456C81.8254 34.32 82.5614 34.944 83.5534 35.328C84.5774 35.712 85.8574 35.904 87.3934 35.904C88.9294 35.904 90.2094 35.712 91.2334 35.328C92.2894 34.944 93.0894 34.336 93.6334 33.504C94.1774 32.64 94.4494 31.52 94.4494 30.144H95.3614L95.8414 35.328H94.5454C94.0974 37.696 93.0734 39.488 91.4734 40.704C89.8734 41.888 87.6974 42.48 84.9454 42.48ZM101.649 42H94.9294V34.896L94.4494 34.272V9.84H101.649V42ZM117.473 50.16H113.537V43.632H119.441C120.337 43.632 121.009 43.504 121.457 43.248C121.905 42.992 122.273 42.544 122.561 41.904L123.569 39.552L122.849 42.912L110.705 17.952H118.865L123.953 28.944L125.969 34.608H126.449L128.369 28.896L132.929 17.952H140.945L129.041 43.728C128.273 45.392 127.377 46.688 126.353 47.616C125.329 48.576 124.097 49.232 122.657 49.584C121.217 49.968 119.489 50.16 117.473 50.16ZM155.494 42.48C152.774 42.48 150.374 41.968 148.294 40.944C146.246 39.92 144.646 38.48 143.494 36.624C142.342 34.736 141.766 32.528 141.766 30C141.766 27.44 142.342 25.232 143.494 23.376C144.646 21.488 146.246 20.032 148.294 19.008C150.374 17.984 152.774 17.472 155.494 17.472C158.246 17.472 160.646 17.984 162.694 19.008C164.742 20.032 166.342 21.488 167.494 23.376C168.646 25.232 169.222 27.44 169.222 30C169.222 32.528 168.646 34.736 167.494 36.624C166.342 38.48 164.742 39.92 162.694 40.944C160.646 41.968 158.246 42.48 155.494 42.48ZM155.494 36.096C157.926 36.096 159.622 35.616 160.582 34.656C161.574 33.664 162.07 32.112 162.07 30C162.07 27.856 161.574 26.288 160.582 25.296C159.622 24.304 157.926 23.808 155.494 23.808C153.062 23.808 151.35 24.304 150.358 25.296C149.398 26.288 148.918 27.856 148.918 30C148.918 32.112 149.398 33.664 150.358 34.656C151.35 35.616 153.062 36.096 155.494 36.096ZM182.098 42.48C179.858 42.48 177.986 42.064 176.482 41.232C175.01 40.368 173.906 39.216 173.17 37.776C172.466 36.336 172.114 34.72 172.114 32.928V17.952H179.314V30.528C179.314 32.448 179.778 33.856 180.706 34.752C181.634 35.616 183.234 36.048 185.506 36.048C187.874 36.048 189.522 35.584 190.45 34.656C191.41 33.696 191.89 32.192 191.89 30.144L192.802 30.096L193.33 34.656H191.986C191.794 36 191.314 37.264 190.546 38.448C189.81 39.632 188.738 40.608 187.33 41.376C185.954 42.112 184.21 42.48 182.098 42.48ZM199.09 42H192.37V34.56L191.89 34.32V17.952H199.09V42ZM209.972 42H202.772V17.952H209.444V24.816L209.972 25.056V42ZM209.972 28.08H208.532V24.336H209.876C210.1 23.024 210.532 21.856 211.172 20.832C211.844 19.776 212.74 18.96 213.86 18.384C214.98 17.776 216.34 17.472 217.94 17.472C219.764 17.472 221.22 17.856 222.308 18.624C223.428 19.36 224.244 20.368 224.756 21.648C225.268 22.896 225.524 24.304 225.524 25.872V29.856H218.324V27.36C218.324 26.016 218.02 25.056 217.412 24.48C216.836 23.872 215.812 23.568 214.34 23.568C212.74 23.568 211.604 23.936 210.932 24.672C210.292 25.408 209.972 26.544 209.972 28.08Z" fill="#25324B"/>
<path d="M255.625 42.48C253.129 42.48 251.017 41.968 249.289 40.944C247.561 39.92 246.249 38.48 245.353 36.624C244.457 34.736 244.009 32.528 244.009 30C244.009 27.44 244.441 25.232 245.305 23.376C246.201 21.488 247.481 20.032 249.145 19.008C250.841 17.984 252.873 17.472 255.241 17.472C258.089 17.472 260.281 18.112 261.817 19.392C263.353 20.672 264.313 22.32 264.697 24.336H266.041V29.76H265.129C265.129 27.68 264.521 26.208 263.305 25.344C262.121 24.48 260.377 24.048 258.073 24.048C256.537 24.048 255.257 24.24 254.233 24.624C253.241 25.008 252.505 25.632 252.025 26.496C251.545 27.328 251.305 28.496 251.305 30C251.305 31.44 251.545 32.592 252.025 33.456C252.505 34.32 253.241 34.944 254.233 35.328C255.257 35.712 256.537 35.904 258.073 35.904C259.609 35.904 260.889 35.712 261.913 35.328C262.969 34.944 263.769 34.336 264.313 33.504C264.857 32.64 265.129 31.52 265.129 30.144H266.041L266.521 35.328H265.225C264.777 37.696 263.753 39.488 262.153 40.704C260.553 41.888 258.377 42.48 255.625 42.48ZM272.329 42H265.609V34.896L265.129 34.272V9.84H272.329V42ZM283.339 42H276.139V17.952H282.811V24.816L283.339 25.056V42ZM283.339 28.08H281.899V24.336H283.243C283.467 23.024 283.899 21.856 284.539 20.832C285.211 19.776 286.107 18.96 287.227 18.384C288.347 17.776 289.707 17.472 291.307 17.472C293.131 17.472 294.587 17.856 295.675 18.624C296.795 19.36 297.611 20.368 298.123 21.648C298.635 22.896 298.891 24.304 298.891 25.872V29.856H291.691V27.36C291.691 26.016 291.387 25.056 290.779 24.48C290.203 23.872 289.179 23.568 287.707 23.568C286.107 23.568 284.971 23.936 284.299 24.672C283.659 25.408 283.339 26.544 283.339 28.08ZM314.266 42.48C311.61 42.48 309.258 42.032 307.21 41.136C305.162 40.24 303.578 38.864 302.458 37.008C301.338 35.152 300.778 32.816 300.778 30C300.778 27.44 301.338 25.232 302.458 23.376C303.578 21.488 305.13 20.032 307.114 19.008C309.13 17.984 311.466 17.472 314.122 17.472C316.746 17.472 319.034 17.92 320.986 18.816C322.97 19.712 324.506 21.04 325.594 22.8C326.682 24.528 327.226 26.64 327.226 29.136C327.226 29.552 327.21 29.936 327.178 30.288C327.146 30.64 327.098 31.024 327.034 31.44H305.434V27.648H321.946L320.314 30C320.314 29.68 320.314 29.376 320.314 29.088C320.314 28.8 320.314 28.512 320.314 28.224C320.314 26.4 319.818 25.088 318.826 24.288C317.834 23.488 316.218 23.088 313.978 23.088C311.546 23.088 309.85 23.568 308.89 24.528C307.93 25.456 307.45 26.944 307.45 28.992V30.816C307.45 32.864 307.93 34.368 308.89 35.328C309.85 36.256 311.562 36.72 314.026 36.72C316.138 36.72 317.626 36.448 318.49 35.904C319.354 35.36 319.786 34.576 319.786 33.552V33.072H326.986V33.6C326.986 35.328 326.458 36.864 325.402 38.208C324.346 39.552 322.858 40.608 320.938 41.376C319.05 42.112 316.826 42.48 314.266 42.48ZM354.567 42H347.847V36.288L347.463 36.192V27.792C347.463 26.224 347.063 25.168 346.263 24.624C345.495 24.08 344.151 23.808 342.231 23.808C340.407 23.808 339.095 24.08 338.295 24.624C337.495 25.168 337.095 26.128 337.095 27.504V27.696H329.847V27.552C329.847 25.568 330.375 23.824 331.431 22.32C332.487 20.784 333.975 19.6 335.895 18.768C337.847 17.904 340.135 17.472 342.759 17.472C345.447 17.472 347.655 17.904 349.383 18.768C351.143 19.632 352.439 20.848 353.271 22.416C354.135 23.952 354.567 25.776 354.567 27.888V42ZM337.671 42.48C335.079 42.48 333.047 41.904 331.575 40.752C330.103 39.6 329.367 38.032 329.367 36.048C329.367 34.832 329.655 33.792 330.231 32.928C330.807 32.064 331.671 31.376 332.823 30.864C333.975 30.32 335.415 29.952 337.143 29.76L347.943 28.656V32.784L339.111 33.792C338.247 33.856 337.607 34.032 337.191 34.32C336.807 34.576 336.615 34.992 336.615 35.568C336.615 36.208 336.871 36.672 337.383 36.96C337.895 37.248 338.679 37.392 339.735 37.392C341.463 37.392 342.887 37.232 344.007 36.912C345.127 36.592 345.975 36.08 346.551 35.376C347.159 34.64 347.463 33.664 347.463 32.448L348.135 32.4V36.48H347.463C346.919 38.336 345.815 39.808 344.151 40.896C342.519 41.952 340.359 42.48 337.671 42.48ZM402.089 42H394.889V29.424C394.889 27.44 394.489 26.032 393.689 25.2C392.889 24.368 391.449 23.952 389.369 23.952C387.193 23.952 385.705 24.416 384.905 25.344C384.137 26.272 383.753 27.776 383.753 29.856H382.841L382.265 25.344H383.657C383.849 23.968 384.265 22.688 384.905 21.504C385.577 20.32 386.553 19.36 387.833 18.624C389.145 17.856 390.825 17.472 392.873 17.472C394.953 17.472 396.665 17.888 398.009 18.72C399.385 19.552 400.409 20.688 401.081 22.128C401.753 23.568 402.089 25.2 402.089 27.024V42ZM365.417 42H358.217V17.952H364.889V25.44L365.417 25.68V42ZM383.753 42H376.553V29.424C376.553 27.44 376.153 26.032 375.353 25.2C374.553 24.368 373.113 23.952 371.033 23.952C368.825 23.952 367.337 24.416 366.569 25.344C365.801 26.272 365.417 27.776 365.417 29.856H364.505L363.977 25.248H365.273C365.497 23.904 365.929 22.656 366.569 21.504C367.209 20.32 368.153 19.36 369.401 18.624C370.649 17.856 372.281 17.472 374.297 17.472C376.377 17.472 378.073 17.904 379.385 18.768C380.729 19.632 381.721 20.784 382.361 22.224C383.001 23.664 383.321 25.264 383.321 27.024H383.753V42ZM410.658 50.16H409.458V44.784H410.754C411.554 44.784 412.146 44.608 412.53 44.256C412.946 43.904 413.154 43.312 413.154 42.48V17.952H420.354V41.328C420.354 43.6 419.954 45.376 419.154 46.656C418.386 47.936 417.282 48.832 415.842 49.344C414.402 49.888 412.674 50.16 410.658 50.16ZM420.354 15.504H413.154V9.84H420.354V15.504ZM437.033 42.48C434.313 42.48 431.913 41.968 429.833 40.944C427.785 39.92 426.185 38.48 425.033 36.624C423.881 34.736 423.305 32.528 423.305 30C423.305 27.44 423.881 25.232 425.033 23.376C426.185 21.488 427.785 20.032 429.833 19.008C431.913 17.984 434.313 17.472 437.033 17.472C439.785 17.472 442.185 17.984 444.233 19.008C446.281 20.032 447.881 21.488 449.033 23.376C450.185 25.232 450.761 27.44 450.761 30C450.761 32.528 450.185 34.736 449.033 36.624C447.881 38.48 446.281 39.92 444.233 40.944C442.185 41.968 439.785 42.48 437.033 42.48ZM437.033 36.096C439.465 36.096 441.161 35.616 442.121 34.656C443.113 33.664 443.609 32.112 443.609 30C443.609 27.856 443.113 26.288 442.121 25.296C441.161 24.304 439.465 23.808 437.033 23.808C434.601 23.808 432.889 24.304 431.897 25.296C430.937 26.288 430.457 27.856 430.457 30C430.457 32.112 430.937 33.664 431.897 34.656C432.889 35.616 434.601 36.096 437.033 36.096ZM470.405 42.48C467.621 42.48 465.429 41.888 463.829 40.704C462.261 39.488 461.253 37.696 460.805 35.328H459.461L459.989 30.144H460.901C460.901 31.52 461.157 32.64 461.669 33.504C462.213 34.336 462.997 34.944 464.021 35.328C465.077 35.712 466.373 35.904 467.909 35.904C469.477 35.904 470.757 35.712 471.749 35.328C472.741 34.944 473.477 34.32 473.957 33.456C474.437 32.592 474.677 31.44 474.677 30C474.677 28.496 474.437 27.328 473.957 26.496C473.477 25.632 472.741 25.008 471.749 24.624C470.757 24.24 469.493 24.048 467.957 24.048C465.621 24.048 463.861 24.48 462.677 25.344C461.493 26.208 460.901 27.68 460.901 29.76H459.989V24.336H461.285C461.701 22.32 462.661 20.672 464.165 19.392C465.701 18.112 467.893 17.472 470.741 17.472C473.141 17.472 475.173 17.984 476.837 19.008C478.501 20.032 479.765 21.488 480.629 23.376C481.525 25.232 481.973 27.44 481.973 30C481.973 32.528 481.525 34.736 480.629 36.624C479.765 38.48 478.469 39.92 476.741 40.944C475.013 41.968 472.901 42.48 470.405 42.48ZM460.373 42H453.701V9.84H460.901V34.272L460.373 34.896V42Z" fill="#26A4FF"/>
<path d="M247.639 58.8383C249.526 58.8383 251.503 58.7787 253.389 58.7192C254.198 58.7192 254.917 58.6596 255.726 58.6596C259.14 58.5404 262.554 58.4213 265.969 58.3021C270.102 58.183 274.145 58.0043 278.278 57.8851C284.119 57.6468 289.959 57.4681 295.8 57.2298C297.147 57.1702 298.495 57.1702 299.843 57.1106C303.257 56.9915 306.672 56.8723 310.086 56.8128C313.5 56.6936 316.915 56.5745 320.329 56.5149C321.677 56.4553 323.025 56.3958 324.372 56.3958C329.764 56.2766 335.244 56.1574 340.636 56.0383C343.96 55.9787 347.285 55.9192 350.699 55.8C352.047 55.8 353.305 55.7404 354.652 55.7404C359.864 55.6809 365.165 55.6213 370.377 55.5617C375.588 55.5021 380.71 55.4426 385.921 55.383C387.269 55.383 388.616 55.383 390.054 55.383C393.468 55.383 396.793 55.383 400.207 55.383C405.509 55.383 410.72 55.383 416.021 55.3234C417.728 55.3234 419.436 55.3234 421.143 55.3234C424.737 55.3234 428.331 55.3234 431.925 55.3234C432.195 55.3234 432.554 55.3234 432.824 55.3234C424.737 55.383 416.56 55.4426 408.474 55.5617C405.059 55.6213 401.735 55.6213 398.32 55.6809C396.883 55.6809 395.355 55.6809 393.918 55.7404C388.976 55.8 384.124 55.9192 379.182 55.9787C373.521 56.0979 367.861 56.1575 362.2 56.2766C361.212 56.2766 360.313 56.3362 359.325 56.3362C356.27 56.4553 353.305 56.5149 350.25 56.634C344.14 56.8128 338.03 56.9915 331.92 57.1702C331.021 57.1702 330.123 57.2298 329.224 57.2894C326.259 57.4085 323.204 57.5872 320.239 57.7064C314.848 57.9447 309.547 58.183 304.156 58.4213C302.718 58.4809 301.191 58.6 299.753 58.6596C296.339 58.8383 292.924 59.017 289.51 59.2553C285.197 59.4936 280.794 59.7319 276.481 59.9702C270.461 60.3277 264.351 60.6851 258.331 61.0426C256.894 61.1021 255.456 61.2213 253.929 61.2809C251.323 61.4596 248.717 61.6383 246.111 61.817C245.842 61.817 245.572 61.9362 245.572 62.1745C245.572 62.3532 245.842 62.5319 246.111 62.5319C247.1 62.5319 247.998 62.5915 248.987 62.5915C248.897 62.7702 248.807 62.949 248.807 63.1277C248.807 63.783 249.616 64.3787 250.694 64.3787C258.152 64.0809 265.519 63.7234 272.977 63.4851C279.447 63.3064 285.916 63.0681 292.385 62.8894C299.483 62.6511 306.672 62.4128 313.77 62.2341C316.016 62.1745 318.262 62.1149 320.509 61.9958C321.138 61.9958 321.767 61.9362 322.486 61.9362C333.987 61.7575 345.488 61.5192 356.989 61.3404C363.099 61.2213 369.298 61.1021 375.408 61.0426C377.655 60.983 379.811 60.983 382.057 60.9234C393.828 60.8043 405.598 60.6851 417.369 60.566C422.401 60.5064 427.432 60.4468 432.464 60.3872C436.777 60.3277 441.09 60.3277 445.403 60.2085C448.997 60.1489 452.501 60.0298 456.095 59.9702C457.892 59.9106 459.689 59.9106 461.396 59.8511C465.44 59.6723 469.483 59.4936 473.526 59.3149C473.257 59.5532 473.257 59.9106 473.347 60.1489C473.437 60.4468 473.706 60.6851 474.155 60.8043C474.515 60.9234 475.054 61.0426 475.413 60.9234C476.312 60.6851 477.21 60.4468 478.019 60.2085C478.019 60.2085 478.019 60.2085 477.929 60.2085C478.019 60.2085 478.019 60.1489 478.109 60.1489C478.199 60.1489 478.289 60.0894 478.289 60.0894H478.199C478.648 59.9702 479.097 59.8511 479.636 59.6724C480.086 59.5532 480.625 59.3745 481.074 59.2553C481.613 59.0766 482.062 58.8979 482.601 58.7192C483.141 58.5404 483.5 58.0638 483.5 57.6468C483.5 57.4085 483.41 57.2298 483.23 56.9915C483.051 56.7532 482.601 56.4553 482.152 56.3958C481.703 56.3362 481.254 56.2766 480.804 56.2766C480.715 56.2766 480.625 56.2766 480.535 56.2766C480.265 56.2766 479.906 56.2766 479.636 56.3362C478.918 56.3957 478.289 56.4553 477.57 56.4553C477.031 56.4553 476.492 56.5149 475.863 56.5149C474.335 56.5745 472.897 56.634 471.37 56.7532C471.011 56.7532 470.561 56.8128 470.202 56.8128C470.382 56.6936 470.471 56.5745 470.471 56.4553C470.561 56.3362 470.561 56.217 470.561 56.0979C470.561 56.0383 470.561 55.9192 470.651 55.8596C470.651 55.7404 470.651 55.6213 470.561 55.5617C470.561 55.5617 470.651 55.5617 470.651 55.5021C470.921 55.383 471.19 55.2638 471.37 55.0255C471.55 54.8468 471.64 54.6085 471.64 54.3702C471.64 54.1319 471.55 53.9532 471.37 53.7149C471.28 53.6553 471.19 53.5362 471.1 53.4766C470.831 53.2979 470.561 53.2383 470.292 53.1787C469.753 53.0596 469.124 53 468.495 53C467.956 53 467.506 53 466.967 53C466.248 53 465.53 53 464.811 53C463.822 53 462.744 53 461.756 53C459.06 53 456.365 53 453.669 53C451.153 53 448.548 53 446.032 53C443.696 53 441.449 53 439.113 53C429.858 53 420.694 53.0596 411.439 53.1192C404.52 53.1787 397.602 53.2383 390.683 53.2383C387.628 53.2383 384.483 53.2979 381.428 53.3574C374.51 53.4766 367.591 53.5362 360.673 53.6553C358.696 53.6553 356.719 53.7149 354.742 53.7149C353.574 53.7149 352.496 53.7745 351.328 53.7745C344.499 53.9532 337.67 54.1319 330.842 54.3106C328.775 54.3702 326.709 54.4298 324.552 54.4894C323.384 54.4894 322.216 54.5489 321.048 54.6085C314.219 54.8468 307.48 55.0851 300.652 55.3234C297.147 55.4426 293.643 55.5617 290.139 55.7404C284.119 55.9787 278.099 56.217 272.169 56.5149C266.957 56.7532 261.746 56.9319 256.534 57.1106C255.726 57.1702 254.917 57.1702 254.018 57.2298C252.671 57.2894 251.323 57.2894 249.975 57.3489C248.807 57.4085 247.639 57.4085 246.381 57.4085C246.291 57.2298 245.932 57.0511 245.662 57.0511C244.854 57.1106 244.135 57.1702 243.326 57.2298C242.967 57.2298 242.607 57.3489 242.517 57.6468C242.428 57.9447 242.697 58.2426 243.057 58.3021C243.416 58.3617 243.685 58.4213 244.045 58.4809C244.404 58.5404 244.674 58.5404 245.033 58.5404C245.932 58.7787 246.74 58.7787 247.639 58.8383ZM457.892 56.8723C458.97 56.8723 460.139 56.8723 461.217 56.8723C461.307 57.0511 461.486 57.1702 461.666 57.2894C461.217 57.2894 460.767 57.3489 460.408 57.3489C459.599 57.3489 458.791 57.4085 457.982 57.4085C454.388 57.4681 450.884 57.5872 447.29 57.6468C445.672 57.7064 444.055 57.766 442.438 57.766C439.922 57.766 437.316 57.8255 434.8 57.8255C428.96 57.8851 423.209 57.9447 417.369 58.0043C406.048 58.1234 394.816 58.2426 383.495 58.3617C375.408 58.4213 367.322 58.6 359.235 58.7787C347.105 59.017 334.885 59.1958 322.755 59.4341C320.329 59.4936 317.903 59.5532 315.477 59.6724C308.559 59.9106 301.64 60.0894 294.721 60.3277C287.982 60.566 281.154 60.7447 274.415 60.983C273.786 60.983 273.157 61.0426 272.528 61.0426C274.325 60.9234 276.212 60.8638 278.009 60.7447C284.388 60.4468 290.768 60.0894 297.147 59.7915C299.394 59.6723 301.64 59.5532 303.796 59.4341C304.964 59.3745 306.133 59.3149 307.211 59.3149C313.86 59.0766 320.509 58.7787 327.158 58.5404C328.416 58.4809 329.764 58.4213 331.021 58.3617C332.908 58.3021 334.795 58.2426 336.592 58.2426C343.421 58.0638 350.25 57.8851 357.078 57.7064C358.606 57.6468 360.133 57.6468 361.571 57.5872C361.93 57.5872 362.38 57.5872 362.739 57.5872C363.817 57.5872 364.896 57.5872 365.884 57.5277C372.713 57.4085 379.631 57.3489 386.46 57.2298C389.605 57.1702 392.75 57.1106 395.894 57.1106C406.048 57.0511 416.291 56.9915 426.444 56.9319C437.136 56.9319 447.559 56.9319 457.892 56.8723Z" fill="#26A4FF"/>
<path d="M261.206 67C261.504 67 261.745 66.84 261.745 66.6426C261.745 66.4452 261.504 66.2852 261.206 66.2852C260.908 66.2852 260.667 66.4452 260.667 66.6426C260.667 66.84 260.908 67 261.206 67Z" fill="#26A4FF"/>
</svg>
