<svg width="241" height="136" viewBox="0 0 241 136" fill="none" xmlns="http://www.w3.org/2000/svg">
<path d="M9.40906 42H2.20906V9.84H9.40906V42ZM28.7051 30H4.22506V23.568H28.7051V30ZM29.4251 16.32H4.22506V9.84H29.4251V16.32ZM39.6903 42H32.4903V17.952H39.6903V42ZM39.6903 15.504H32.4903V9.84H39.6903V15.504ZM70.0511 42H62.8511V29.424C62.8511 27.472 62.4031 26.08 61.5071 25.248C60.6111 24.384 59.0591 23.952 56.8511 23.952C54.5471 23.952 52.9311 24.432 52.0031 25.392C51.1071 26.32 50.6591 27.808 50.6591 29.856H49.7471L49.2191 25.344H50.5631C50.7871 24 51.2671 22.736 52.0031 21.552C52.7391 20.336 53.7791 19.36 55.1231 18.624C56.4991 17.856 58.2431 17.472 60.3551 17.472C62.5311 17.472 64.3391 17.904 65.7791 18.768C67.2191 19.6 68.2911 20.736 68.9951 22.176C69.6991 23.616 70.0511 25.232 70.0511 27.024V42ZM50.6591 42H43.4591V17.952H50.1311V25.44L50.6591 25.68V42ZM84.4454 42.48C81.9494 42.48 79.8374 41.968 78.1094 40.944C76.3814 39.92 75.0694 38.48 74.1734 36.624C73.2774 34.736 72.8294 32.528 72.8294 30C72.8294 27.44 73.2614 25.232 74.1254 23.376C75.0214 21.488 76.3014 20.032 77.9654 19.008C79.6614 17.984 81.6934 17.472 84.0614 17.472C86.9094 17.472 89.1014 18.112 90.6374 19.392C92.1734 20.672 93.1334 22.32 93.5174 24.336H94.8614V29.76H93.9494C93.9494 27.68 93.3414 26.208 92.1254 25.344C90.9414 24.48 89.1974 24.048 86.8934 24.048C85.3574 24.048 84.0774 24.24 83.0534 24.624C82.0614 25.008 81.3254 25.632 80.8454 26.496C80.3654 27.328 80.1254 28.496 80.1254 30C80.1254 31.44 80.3654 32.592 80.8454 33.456C81.3254 34.32 82.0614 34.944 83.0534 35.328C84.0774 35.712 85.3574 35.904 86.8934 35.904C88.4294 35.904 89.7094 35.712 90.7334 35.328C91.7894 34.944 92.5894 34.336 93.1334 33.504C93.6774 32.64 93.9494 31.52 93.9494 30.144H94.8614L95.3414 35.328H94.0454C93.5974 37.696 92.5734 39.488 90.9734 40.704C89.3734 41.888 87.1974 42.48 84.4454 42.48ZM101.149 42H94.4294V34.896L93.9494 34.272V9.84H101.149V42ZM116.973 50.16H113.037V43.632H118.941C119.837 43.632 120.509 43.504 120.957 43.248C121.405 42.992 121.773 42.544 122.061 41.904L123.069 39.552L122.349 42.912L110.205 17.952H118.365L123.453 28.944L125.469 34.608H125.949L127.869 28.896L132.429 17.952H140.445L128.541 43.728C127.773 45.392 126.877 46.688 125.853 47.616C124.829 48.576 123.597 49.232 122.157 49.584C120.717 49.968 118.989 50.16 116.973 50.16ZM154.994 42.48C152.274 42.48 149.874 41.968 147.794 40.944C145.746 39.92 144.146 38.48 142.994 36.624C141.842 34.736 141.266 32.528 141.266 30C141.266 27.44 141.842 25.232 142.994 23.376C144.146 21.488 145.746 20.032 147.794 19.008C149.874 17.984 152.274 17.472 154.994 17.472C157.746 17.472 160.146 17.984 162.194 19.008C164.242 20.032 165.842 21.488 166.994 23.376C168.146 25.232 168.722 27.44 168.722 30C168.722 32.528 168.146 34.736 166.994 36.624C165.842 38.48 164.242 39.92 162.194 40.944C160.146 41.968 157.746 42.48 154.994 42.48ZM154.994 36.096C157.426 36.096 159.122 35.616 160.082 34.656C161.074 33.664 161.57 32.112 161.57 30C161.57 27.856 161.074 26.288 160.082 25.296C159.122 24.304 157.426 23.808 154.994 23.808C152.562 23.808 150.85 24.304 149.858 25.296C148.898 26.288 148.418 27.856 148.418 30C148.418 32.112 148.898 33.664 149.858 34.656C150.85 35.616 152.562 36.096 154.994 36.096ZM181.598 42.48C179.358 42.48 177.486 42.064 175.982 41.232C174.51 40.368 173.406 39.216 172.67 37.776C171.966 36.336 171.614 34.72 171.614 32.928V17.952H178.814V30.528C178.814 32.448 179.278 33.856 180.206 34.752C181.134 35.616 182.734 36.048 185.006 36.048C187.374 36.048 189.022 35.584 189.95 34.656C190.91 33.696 191.39 32.192 191.39 30.144L192.302 30.096L192.83 34.656H191.486C191.294 36 190.814 37.264 190.046 38.448C189.31 39.632 188.238 40.608 186.83 41.376C185.454 42.112 183.71 42.48 181.598 42.48ZM198.59 42H191.87V34.56L191.39 34.32V17.952H198.59V42ZM209.472 42H202.272V17.952H208.944V24.816L209.472 25.056V42ZM209.472 28.08H208.032V24.336H209.376C209.6 23.024 210.032 21.856 210.672 20.832C211.344 19.776 212.24 18.96 213.36 18.384C214.48 17.776 215.84 17.472 217.44 17.472C219.264 17.472 220.72 17.856 221.808 18.624C222.928 19.36 223.744 20.368 224.256 21.648C224.768 22.896 225.024 24.304 225.024 25.872V29.856H217.824V27.36C217.824 26.016 217.52 25.056 216.912 24.48C216.336 23.872 215.312 23.568 213.84 23.568C212.24 23.568 211.104 23.936 210.432 24.672C209.792 25.408 209.472 26.544 209.472 28.08Z" fill="#25324B"/>
<path d="M13.1251 111.48C10.6291 111.48 8.51713 110.968 6.78912 109.944C5.06113 108.92 3.74913 107.48 2.85313 105.624C1.95713 103.736 1.50913 101.528 1.50913 99C1.50913 96.44 1.94113 94.232 2.80513 92.376C3.70113 90.488 4.98113 89.032 6.64513 88.008C8.34113 86.984 10.3731 86.472 12.7411 86.472C15.5891 86.472 17.7811 87.112 19.3171 88.392C20.8531 89.672 21.8131 91.32 22.1971 93.336H23.5411V98.76H22.6291C22.6291 96.68 22.0211 95.208 20.8051 94.344C19.6211 93.48 17.8771 93.048 15.5731 93.048C14.0371 93.048 12.7571 93.24 11.7331 93.624C10.7411 94.008 10.0051 94.632 9.52513 95.496C9.04513 96.328 8.80513 97.496 8.80513 99C8.80513 100.44 9.04513 101.592 9.52513 102.456C10.0051 103.32 10.7411 103.944 11.7331 104.328C12.7571 104.712 14.0371 104.904 15.5731 104.904C17.1091 104.904 18.3891 104.712 19.4131 104.328C20.4691 103.944 21.2691 103.336 21.8131 102.504C22.3571 101.64 22.6291 100.52 22.6291 99.144H23.5411L24.0211 104.328H22.7251C22.2771 106.696 21.2531 108.488 19.6531 109.704C18.0531 110.888 15.8771 111.48 13.1251 111.48ZM29.8291 111H23.1091V103.896L22.6291 103.272V78.84H29.8291V111ZM40.8388 111H33.6388V86.952H40.3108V93.816L40.8388 94.056V111ZM40.8388 97.08H39.3988V93.336H40.7428C40.9668 92.024 41.3988 90.856 42.0388 89.832C42.7108 88.776 43.6068 87.96 44.7268 87.384C45.8468 86.776 47.2068 86.472 48.8068 86.472C50.6308 86.472 52.0868 86.856 53.1748 87.624C54.2948 88.36 55.1108 89.368 55.6228 90.648C56.1348 91.896 56.3907 93.304 56.3907 94.872V98.856H49.1908V96.36C49.1908 95.016 48.8868 94.056 48.2788 93.48C47.7028 92.872 46.6788 92.568 45.2068 92.568C43.6068 92.568 42.4708 92.936 41.7988 93.672C41.1588 94.408 40.8388 95.544 40.8388 97.08ZM71.7661 111.48C69.1101 111.48 66.7581 111.032 64.7101 110.136C62.6621 109.24 61.0781 107.864 59.9581 106.008C58.8381 104.152 58.2781 101.816 58.2781 99C58.2781 96.44 58.8381 94.232 59.9581 92.376C61.0781 90.488 62.6301 89.032 64.6141 88.008C66.6301 86.984 68.9661 86.472 71.6221 86.472C74.2461 86.472 76.5341 86.92 78.4861 87.816C80.4701 88.712 82.0061 90.04 83.0941 91.8C84.1821 93.528 84.7261 95.64 84.7261 98.136C84.7261 98.552 84.7101 98.936 84.6781 99.288C84.6461 99.64 84.5981 100.024 84.5341 100.44H62.9341V96.648H79.4461L77.8141 99C77.8141 98.68 77.8141 98.376 77.8141 98.088C77.8141 97.8 77.8141 97.512 77.8141 97.224C77.8141 95.4 77.3181 94.088 76.3261 93.288C75.3341 92.488 73.7181 92.088 71.4781 92.088C69.0461 92.088 67.3501 92.568 66.3901 93.528C65.4301 94.456 64.9501 95.944 64.9501 97.992V99.816C64.9501 101.864 65.4301 103.368 66.3901 104.328C67.3501 105.256 69.0621 105.72 71.5261 105.72C73.6381 105.72 75.1261 105.448 75.9901 104.904C76.8541 104.36 77.2861 103.576 77.2861 102.552V102.072H84.4861V102.6C84.4861 104.328 83.9581 105.864 82.9021 107.208C81.8461 108.552 80.3581 109.608 78.4381 110.376C76.5501 111.112 74.3261 111.48 71.7661 111.48ZM112.067 111H105.347V105.288L104.963 105.192V96.792C104.963 95.224 104.563 94.168 103.763 93.624C102.995 93.08 101.651 92.808 99.7314 92.808C97.9074 92.808 96.5954 93.08 95.7954 93.624C94.9954 94.168 94.5954 95.128 94.5954 96.504V96.696H87.3474V96.552C87.3474 94.568 87.8754 92.824 88.9314 91.32C89.9874 89.784 91.4754 88.6 93.3954 87.768C95.3474 86.904 97.6354 86.472 100.259 86.472C102.947 86.472 105.155 86.904 106.883 87.768C108.643 88.632 109.939 89.848 110.771 91.416C111.635 92.952 112.067 94.776 112.067 96.888V111ZM95.1714 111.48C92.5794 111.48 90.5474 110.904 89.0754 109.752C87.6034 108.6 86.8674 107.032 86.8674 105.048C86.8674 103.832 87.1554 102.792 87.7314 101.928C88.3074 101.064 89.1714 100.376 90.3234 99.864C91.4754 99.32 92.9154 98.952 94.6434 98.76L105.443 97.656V101.784L96.6114 102.792C95.7474 102.856 95.1074 103.032 94.6914 103.32C94.3074 103.576 94.1154 103.992 94.1154 104.568C94.1154 105.208 94.3714 105.672 94.8834 105.96C95.3954 106.248 96.1794 106.392 97.2354 106.392C98.9634 106.392 100.387 106.232 101.507 105.912C102.627 105.592 103.475 105.08 104.051 104.376C104.659 103.64 104.963 102.664 104.963 101.448L105.635 101.4V105.48H104.963C104.419 107.336 103.315 108.808 101.651 109.896C100.019 110.952 97.8594 111.48 95.1714 111.48ZM159.589 111H152.389V98.424C152.389 96.44 151.989 95.032 151.189 94.2C150.389 93.368 148.949 92.952 146.869 92.952C144.693 92.952 143.205 93.416 142.405 94.344C141.637 95.272 141.253 96.776 141.253 98.856H140.341L139.765 94.344H141.157C141.349 92.968 141.765 91.688 142.405 90.504C143.077 89.32 144.053 88.36 145.333 87.624C146.645 86.856 148.325 86.472 150.373 86.472C152.453 86.472 154.165 86.888 155.509 87.72C156.885 88.552 157.909 89.688 158.581 91.128C159.253 92.568 159.589 94.2 159.589 96.024V111ZM122.917 111H115.717V86.952H122.389V94.44L122.917 94.68V111ZM141.253 111H134.053V98.424C134.053 96.44 133.653 95.032 132.853 94.2C132.053 93.368 130.613 92.952 128.533 92.952C126.325 92.952 124.837 93.416 124.069 94.344C123.301 95.272 122.917 96.776 122.917 98.856H122.005L121.477 94.248H122.773C122.997 92.904 123.429 91.656 124.069 90.504C124.709 89.32 125.653 88.36 126.901 87.624C128.149 86.856 129.781 86.472 131.797 86.472C133.877 86.472 135.573 86.904 136.885 87.768C138.229 88.632 139.221 89.784 139.861 91.224C140.501 92.664 140.821 94.264 140.821 96.024H141.253V111ZM168.158 119.16H166.958V113.784H168.254C169.054 113.784 169.646 113.608 170.03 113.256C170.446 112.904 170.654 112.312 170.654 111.48V86.952H177.854V110.328C177.854 112.6 177.454 114.376 176.654 115.656C175.886 116.936 174.782 117.832 173.342 118.344C171.902 118.888 170.174 119.16 168.158 119.16ZM177.854 84.504H170.654V78.84H177.854V84.504ZM194.533 111.48C191.813 111.48 189.413 110.968 187.333 109.944C185.285 108.92 183.685 107.48 182.533 105.624C181.381 103.736 180.805 101.528 180.805 99C180.805 96.44 181.381 94.232 182.533 92.376C183.685 90.488 185.285 89.032 187.333 88.008C189.413 86.984 191.813 86.472 194.533 86.472C197.285 86.472 199.685 86.984 201.733 88.008C203.781 89.032 205.381 90.488 206.533 92.376C207.685 94.232 208.261 96.44 208.261 99C208.261 101.528 207.685 103.736 206.533 105.624C205.381 107.48 203.781 108.92 201.733 109.944C199.685 110.968 197.285 111.48 194.533 111.48ZM194.533 105.096C196.965 105.096 198.661 104.616 199.621 103.656C200.613 102.664 201.109 101.112 201.109 99C201.109 96.856 200.613 95.288 199.621 94.296C198.661 93.304 196.965 92.808 194.533 92.808C192.101 92.808 190.389 93.304 189.397 94.296C188.437 95.288 187.957 96.856 187.957 99C187.957 101.112 188.437 102.664 189.397 103.656C190.389 104.616 192.101 105.096 194.533 105.096ZM227.905 111.48C225.121 111.48 222.929 110.888 221.329 109.704C219.761 108.488 218.753 106.696 218.305 104.328H216.961L217.489 99.144H218.401C218.401 100.52 218.657 101.64 219.169 102.504C219.713 103.336 220.497 103.944 221.521 104.328C222.577 104.712 223.873 104.904 225.409 104.904C226.977 104.904 228.257 104.712 229.249 104.328C230.241 103.944 230.977 103.32 231.457 102.456C231.937 101.592 232.177 100.44 232.177 99C232.177 97.496 231.937 96.328 231.457 95.496C230.977 94.632 230.241 94.008 229.249 93.624C228.257 93.24 226.993 93.048 225.457 93.048C223.121 93.048 221.361 93.48 220.177 94.344C218.993 95.208 218.401 96.68 218.401 98.76H217.489V93.336H218.785C219.201 91.32 220.161 89.672 221.665 88.392C223.201 87.112 225.393 86.472 228.241 86.472C230.641 86.472 232.673 86.984 234.337 88.008C236.001 89.032 237.265 90.488 238.129 92.376C239.025 94.232 239.473 96.44 239.473 99C239.473 101.528 239.025 103.736 238.129 105.624C237.265 107.48 235.969 108.92 234.241 109.944C232.513 110.968 230.401 111.48 227.905 111.48ZM217.873 111H211.201V78.84H218.401V103.272L217.873 103.896V111Z" fill="#26A4FF"/>
<path d="M5.13897 127.838C7.02586 127.838 9.0026 127.779 10.8895 127.719C11.6982 127.719 12.417 127.66 13.2256 127.66C16.64 127.54 20.0544 127.421 23.4687 127.302C27.6019 127.183 31.6453 127.004 35.7784 126.885C41.6188 126.647 47.4592 126.468 53.2995 126.23C54.6473 126.17 55.9951 126.17 57.3429 126.111C60.7572 125.991 64.1716 125.872 67.586 125.813C71.0004 125.694 74.4147 125.574 77.8291 125.515C79.1769 125.455 80.5247 125.396 81.8724 125.396C87.2635 125.277 92.7445 125.157 98.1356 125.038C101.46 124.979 104.785 124.919 108.199 124.8C109.547 124.8 110.805 124.74 112.152 124.74C117.364 124.681 122.665 124.621 127.877 124.562C133.088 124.502 138.21 124.443 143.421 124.383C144.769 124.383 146.116 124.383 147.554 124.383C150.968 124.383 154.293 124.383 157.707 124.383C163.009 124.383 168.22 124.383 173.521 124.323C175.228 124.323 176.936 124.323 178.643 124.323C182.237 124.323 185.831 124.323 189.425 124.323C189.695 124.323 190.054 124.323 190.324 124.323C182.237 124.383 174.06 124.443 165.974 124.562C162.559 124.621 159.235 124.621 155.82 124.681C154.383 124.681 152.855 124.681 151.418 124.74C146.476 124.8 141.624 124.919 136.682 124.979C131.021 125.098 125.361 125.157 119.7 125.277C118.712 125.277 117.813 125.336 116.825 125.336C113.77 125.455 110.805 125.515 107.75 125.634C101.64 125.813 95.5299 125.991 89.42 126.17C88.5215 126.17 87.6229 126.23 86.7244 126.289C83.7593 126.409 80.7044 126.587 77.7392 126.706C72.3481 126.945 67.0469 127.183 61.6558 127.421C60.2181 127.481 58.6907 127.6 57.253 127.66C53.8387 127.838 50.4243 128.017 47.0099 128.255C42.697 128.494 38.2943 128.732 33.9814 128.97C27.9613 129.328 21.8514 129.685 15.8313 130.043C14.3937 130.102 12.9561 130.221 11.4286 130.281C8.82289 130.46 6.21719 130.638 3.61149 130.817C3.34193 130.817 3.07238 130.936 3.07238 131.174C3.07238 131.353 3.34193 131.532 3.61149 131.532C4.59986 131.532 5.49838 131.592 6.48675 131.592C6.39689 131.77 6.30704 131.949 6.30704 132.128C6.30704 132.783 7.11571 133.379 8.19393 133.379C15.6516 133.081 23.0195 132.723 30.4772 132.485C36.9465 132.306 43.4158 132.068 49.8852 131.889C56.9835 131.651 64.1716 131.413 71.2699 131.234C73.5162 131.174 75.7625 131.115 78.0088 130.996C78.6378 130.996 79.2667 130.936 79.9855 130.936C91.4866 130.757 102.988 130.519 114.489 130.34C120.599 130.221 126.798 130.102 132.908 130.043C135.155 129.983 137.311 129.983 139.557 129.923C151.328 129.804 163.098 129.685 174.869 129.566C179.901 129.506 184.932 129.447 189.964 129.387C194.277 129.328 198.59 129.328 202.903 129.209C206.497 129.149 210.001 129.03 213.595 128.97C215.392 128.911 217.189 128.911 218.896 128.851C222.94 128.672 226.983 128.494 231.026 128.315C230.757 128.553 230.757 128.911 230.847 129.149C230.937 129.447 231.206 129.685 231.655 129.804C232.015 129.923 232.554 130.043 232.913 129.923C233.812 129.685 234.71 129.447 235.519 129.209C235.519 129.209 235.519 129.209 235.429 129.209C235.519 129.209 235.519 129.149 235.609 129.149C235.699 129.149 235.789 129.089 235.789 129.089H235.699C236.148 128.97 236.597 128.851 237.136 128.672C237.586 128.553 238.125 128.374 238.574 128.255C239.113 128.077 239.562 127.898 240.101 127.719C240.641 127.54 241 127.064 241 126.647C241 126.409 240.91 126.23 240.73 125.991C240.551 125.753 240.101 125.455 239.652 125.396C239.203 125.336 238.754 125.277 238.304 125.277C238.215 125.277 238.125 125.277 238.035 125.277C237.765 125.277 237.406 125.277 237.136 125.336C236.418 125.396 235.789 125.455 235.07 125.455C234.531 125.455 233.992 125.515 233.363 125.515C231.835 125.574 230.397 125.634 228.87 125.753C228.511 125.753 228.061 125.813 227.702 125.813C227.882 125.694 227.971 125.574 227.971 125.455C228.061 125.336 228.061 125.217 228.061 125.098C228.061 125.038 228.061 124.919 228.151 124.86C228.151 124.74 228.151 124.621 228.061 124.562C228.061 124.562 228.151 124.562 228.151 124.502C228.421 124.383 228.69 124.264 228.87 124.026C229.05 123.847 229.14 123.609 229.14 123.37C229.14 123.132 229.05 122.953 228.87 122.715C228.78 122.655 228.69 122.536 228.6 122.477C228.331 122.298 228.061 122.238 227.792 122.179C227.253 122.06 226.624 122 225.995 122C225.456 122 225.006 122 224.467 122C223.748 122 223.03 122 222.311 122C221.322 122 220.244 122 219.256 122C216.56 122 213.865 122 211.169 122C208.653 122 206.048 122 203.532 122C201.196 122 198.949 122 196.613 122C187.358 122 178.194 122.06 168.939 122.119C162.02 122.179 155.102 122.238 148.183 122.238C145.128 122.238 141.983 122.298 138.928 122.357C132.01 122.477 125.091 122.536 118.173 122.655C116.196 122.655 114.219 122.715 112.242 122.715C111.074 122.715 109.996 122.774 108.828 122.774C101.999 122.953 95.1705 123.132 88.3418 123.311C86.2752 123.37 84.2086 123.43 82.0521 123.489C80.8841 123.489 79.716 123.549 78.5479 123.609C71.7192 123.847 64.9803 124.085 58.1515 124.323C54.6473 124.443 51.1431 124.562 47.6389 124.74C41.6188 124.979 35.5987 125.217 29.6685 125.515C24.4571 125.753 19.2457 125.932 14.0343 126.111C13.2256 126.17 12.417 126.17 11.5184 126.23C10.1707 126.289 8.82289 126.289 7.47512 126.349C6.30704 126.409 5.13897 126.409 3.88104 126.409C3.79119 126.23 3.43178 126.051 3.16223 126.051C2.35356 126.111 1.63475 126.17 0.826082 126.23C0.466674 126.23 0.107266 126.349 0.0174146 126.647C-0.0724372 126.945 0.197118 127.243 0.556525 127.302C0.915932 127.362 1.18549 127.421 1.5449 127.481C1.9043 127.54 2.17386 127.54 2.53327 127.54C3.43178 127.779 4.24045 127.779 5.13897 127.838ZM215.392 125.872C216.47 125.872 217.639 125.872 218.717 125.872C218.807 126.051 218.986 126.17 219.166 126.289C218.717 126.289 218.267 126.349 217.908 126.349C217.099 126.349 216.291 126.409 215.482 126.409C211.888 126.468 208.384 126.587 204.79 126.647C203.172 126.706 201.555 126.766 199.938 126.766C197.422 126.766 194.816 126.826 192.3 126.826C186.46 126.885 180.709 126.945 174.869 127.004C163.548 127.123 152.316 127.243 140.995 127.362C132.908 127.421 124.822 127.6 116.735 127.779C104.605 128.017 92.3851 128.196 80.2551 128.434C77.8291 128.494 75.4031 128.553 72.9771 128.672C66.0585 128.911 59.1399 129.089 52.2213 129.328C45.4824 129.566 38.6537 129.745 31.9148 129.983C31.2858 129.983 30.6569 130.043 30.0279 130.043C31.825 129.923 33.7118 129.864 35.5089 129.745C41.8884 129.447 48.2678 129.089 54.6473 128.791C56.8936 128.672 59.1399 128.553 61.2964 128.434C62.4644 128.374 63.6325 128.315 64.7107 128.315C71.3598 128.077 78.0088 127.779 84.6578 127.54C85.9158 127.481 87.2635 127.421 88.5215 127.362C90.4083 127.302 92.2952 127.243 94.0923 127.243C100.921 127.064 107.75 126.885 114.578 126.706C116.106 126.647 117.633 126.647 119.071 126.587C119.43 126.587 119.88 126.587 120.239 126.587C121.317 126.587 122.396 126.587 123.384 126.528C130.213 126.409 137.131 126.349 143.96 126.23C147.105 126.17 150.25 126.111 153.394 126.111C163.548 126.051 173.791 125.991 183.944 125.932C194.636 125.932 205.059 125.932 215.392 125.872Z" fill="#26A4FF"/>
<path d="M18.7061 136C19.0038 136 19.2452 135.84 19.2452 135.643C19.2452 135.445 19.0038 135.285 18.7061 135.285C18.4084 135.285 18.167 135.445 18.167 135.643C18.167 135.84 18.4084 136 18.7061 136Z" fill="#26A4FF"/>
</svg>
